#!OML:ASF F:\VICON\USERDATA\INSTALL\rory3\rory3.ASF
:FULLY-SPECIFIED
:DEGREES
285
root 1.05424 17.9985 22.9784 -4.06016 -1.87084 -0.573306
lowerback 9.85058 0.691982 -0.243921
upperback 1.00132 0.940566 1.00046
thorax -4.50262 0.477718 1.05045
lowerneck -15.4118 -2.52014 -1.61338
upperneck 21.2061 -3.11022 0.0303677
head 9.2423 -1.58063 -0.106736
rclavicle -1.33124e-014 1.13307e-014
rhumerus -27.0982 -21.8881 -79.5525
rradius 25.537
rwrist 7.68793
rhand -17.0697 21.6608
rfingers 7.12502
rthumb 9.16809 -8.11992
lclavicle -1.33124e-014 1.13307e-014
lhumerus -29.6486 2.04244 82.698
lradius 22.7637
lwrist 5.63502
lhand -27.7268 23.3001
lfingers 7.12502
lthumb -1.12203 53.2769
rfemur -20.4871 -3.51539 22.3811
rtibia 70.5575
rfoot -5.74902 -7.54008
rtoes 2.6285
lfemur -6.76131 -0.188661 -25.0836
ltibia 26.6975
lfoot -12.9638 -1.84226
ltoes 5.46532
286
root 1.05849 17.9915 23.134 -4.15717 -1.57798 -0.699578
lowerback 9.84355 0.557416 -0.182185
upperback 1.1226 0.772084 1.10069
thorax -4.36923 0.393424 1.14333
lowerneck -15.3983 -2.52226 -1.79356
upperneck 20.9603 -3.10061 0.18042
head 9.16038 -1.57415 -0.0222228
rclavicle 1.36664e-016 -9.54166e-015
rhumerus -27.4488 -21.7791 -79.4491
rradius 25.9083
rwrist 6.97538
rhand -16.8961 21.4937
rfingers 7.12502
rthumb 9.33555 -8.27957
lclavicle 1.36664e-016 -9.54166e-015
lhumerus -29.0059 1.77 82.7267
lradius 23.1812
lwrist 5.98326
lhand -25.8699 25.2147
lfingers 7.12502
lthumb 0.671364 55.1934
rfemur -21.3374 -3.43055 22.598
rtibia 69.841
rfoot -6.63816 -7.3144
rtoes 2.572
lfemur -6.14002 -0.137271 -24.9823
ltibia 26.8161
lfoot -13.5215 -1.91531
ltoes 5.5218
287
root 1.06431 17.9755 23.2945 -4.27342 -1.21871 -0.309326
lowerback 9.93165 0.450123 -0.591857
upperback 1.14239 0.582116 1.03581
thorax -4.39688 0.306114 1.33195
lowerneck -15.5871 -2.53688 -1.94326
upperneck 21.1201 -3.11191 0.31504
head 9.25597 -1.57566 0.0434784
rclavicle 3.73964e-015 -6.36111e-015
rhumerus -28.0837 -21.4468 -79.3628
rradius 26.4838
rwrist 6.18797
rhand -16.6977 21.9328
rfingers 7.12502
rthumb 9.52707 -7.83178
lclavicle 3.73964e-015 -6.36111e-015
lhumerus -28.6641 1.34004 82.8351
lradius 23.765
lwrist 6.16537
lhand -24.9726 26.6717
lfingers 7.12502
lthumb 1.53801 56.6459
rfemur -22.128 -3.49267 22.1737
rtibia 69.1111
rfoot -7.69134 -6.97995
rtoes 2.6132
lfemur -5.45643 -0.184868 -25.4703
ltibia 26.8547
lfoot -14.0764 -1.92825
ltoes 5.79661
288
root 1.07154 17.9482 23.4554 -4.20086 -0.964092 0.275375
lowerback 9.97092 0.368842 -1.25337
upperback 1.00738 0.398377 0.957937
thorax -4.55847 0.228418 1.64886
lowerneck -15.4605 -2.45261 -1.78375
upperneck 21.1479 -2.9788 0.0614461
head 9.23362 -1.52956 -0.051675
rclavicle -1.92573e-015 -5.36719e-015
rhumerus -28.7234 -21.131 -79.1698
rradius 26.7286
rwrist 5.34596
rhand -16.718 22.3263
rfingers 7.12502
rthumb 9.50742 -7.4392
lclavicle -1.92573e-015 -5.36719e-015
lhumerus -28.4496 0.868784 83.0247
lradius 24.209
lwrist 4.99392
lhand -24.9489 28.1874
lfingers 7.12502
lthumb 1.56097 58.1615
rfemur -23.1827 -3.5032 21.5232
rtibia 68.3028
rfoot -8.5628 -6.59726
rtoes 2.56104
lfemur -4.98359 -0.279998 -26.1935
ltibia 26.8851
lfoot -14.5675 -1.86601
ltoes 6.17583
289
root 1.07795 17.9291 23.6156 -4.2178 -0.702087 0.575571
lowerback 10.1708 0.277788 -1.55819
upperback 0.918267 0.239017 0.9132
thorax -4.75818 0.157635 1.79648
lowerneck -15.3694 -2.41408 -1.81036
upperneck 21.0387 -2.92636 0.0898947
head 9.1793 -1.50443 -0.028976
rclavicle -1.69961e-014 -3.57812e-015
rhumerus -29.1305 -21.4164 -78.8656
rradius 26.5469
rwrist 5.09572
rhand -16.4367 20.8069
rfingers 7.12502
rthumb 9.77886 -8.94608
lclavicle -1.69961e-014 -3.57812e-015
lhumerus -28.1337 0.400194 83.0332
lradius 24.9225
lwrist 2.97477
lhand -22.9416 35.9863
lfingers 7.12502
lthumb 3.49951 65.9373
rfemur -24.1008 -3.48558 21.2104
rtibia 67.2806
rfoot -9.30854 -6.54372
rtoes 0.690836
lfemur -4.38722 -0.218164 -26.57
ltibia 26.8958
lfoot -14.9529 -1.95982
ltoes 6.28651
290
root 1.07239 17.9239 23.7721 -4.25094 -0.548439 0.356787
lowerback 10.419 0.198788 -1.50794
upperback 0.89668 0.143659 1.04818
thorax -4.91562 0.112574 1.92333
lowerneck -15.5492 -2.41981 -1.91828
upperneck 20.9367 -2.93036 0.209999
head 9.18104 -1.50099 0.027877
rclavicle 1.81639e-014 -4.37326e-015
rhumerus -29.486 -21.7471 -78.6162
rradius 26.514
rwrist 5.16647
rhand -16.2769 19.2508
rfingers 7.12502
rthumb 9.93307 -10.4949
lclavicle 1.81639e-014 -4.37326e-015
lhumerus -27.9369 -0.789971 83.3925
lradius 25.137
lwrist 5.40297
lhand -25.0248 29.218
lfingers 7.12502
lthumb 1.48765 59.1925
rfemur -24.917 -3.10392 21.5821
rtibia 65.985
rfoot -10.1089 -6.78935
rtoes -1.14426
lfemur -3.79318 -0.233521 -26.321
ltibia 26.9082
lfoot -15.3613 -1.96653
ltoes 6.32929
291
root 1.06803 17.9107 23.929 -4.2476 -0.455205 0.260186
lowerback 10.4724 0.155772 -1.56029
upperback 0.900486 0.0826623 1.10324
thorax -4.9389 0.0843325 2.01952
lowerneck -15.6199 -2.42595 -1.78757
upperneck 20.8588 -2.96628 0.191528
head 9.16479 -1.50922 -0.00494087
rclavicle -1.13928e-014 -1.98785e-015
rhumerus -29.8519 -22.0808 -78.4486
rradius 26.4678
rwrist 5.02823
rhand -15.9644 18.8026
rfingers 7.12502
rthumb 10.2345 -10.9285
lclavicle -1.13928e-014 -1.98785e-015
lhumerus -27.6134 -1.48636 83.4718
lradius 25.5456
lwrist 6.25469
lhand -25.6453 26.121
lfingers 7.12502
lthumb 0.888286 56.0989
rfemur -25.7184 -2.74756 21.784
rtibia 64.5007
rfoot -10.4104 -6.90032
rtoes -2.20694
lfemur -3.16748 -0.348131 -26.2296
ltibia 26.8347
lfoot -16.0223 -1.83106
ltoes 6.30403
292
root 1.06851 17.9004 24.0852 -4.19066 -0.222205 0.414024
lowerback 10.4013 0.0652993 -1.80157
upperback 0.925152 -0.0648862 1.09777
thorax -4.86627 0.0154381 2.171
lowerneck -15.5667 -2.4363 -1.76095
upperneck 20.7528 -2.99202 0.209054
head 9.11835 -1.51749 -0.00511471
rclavicle 1.03865e-014 3.97569e-015
rhumerus -30.0842 -21.9957 -78.4056
rradius 26.4144
rwrist 4.42904
rhand -15.6509 18.1079
rfingers 7.12502
rthumb 10.5369 -11.608
lclavicle 1.03865e-014 3.97569e-015
lhumerus -26.9921 -1.97782 83.4899
lradius 25.5958
lwrist 6.31594
lhand -25.8862 24.8431
lfingers 7.12502
lthumb 0.655617 54.8219
rfemur -26.4376 -2.5352 21.6301
rtibia 62.8416
rfoot -10.4237 -7.15156
rtoes -4.42835
lfemur -2.51036 -0.358433 -26.41
ltibia 26.5825
lfoot -16.4244 -1.98203
ltoes 6.97003
293
root 1.06428 17.9036 24.2357 -4.00514 -0.0681365 0.320466
lowerback 10.3836 -0.0362955 -1.90967
upperback 0.867817 -0.205679 1.22322
thorax -4.90846 -0.0494846 2.38389
lowerneck -15.3741 -2.45092 -1.77208
upperneck 20.452 -2.99531 0.140482
head 8.9783 -1.52833 -0.0223142
rclavicle 6.93262e-015 2.78299e-015
rhumerus -30.3417 -21.8734 -78.2701
rradius 26.3691
rwrist 4.52389
rhand -15.8636 19.7183
rfingers 7.12502
rthumb 10.3318 -10.0079
lclavicle 6.93262e-015 2.78299e-015
lhumerus -26.5244 -2.45623 83.5699
lradius 25.8621
lwrist 6.54449
lhand -26.2482 24.1693
lfingers 7.12502
lthumb 0.306035 54.1488
rfemur -27.1669 -2.10464 21.7991
rtibia 60.9985
rfoot -10.2207 -7.90704
rtoes -6.88914
lfemur -1.97006 -0.210798 -26.2656
ltibia 26.1589
lfoot -16.4999 -2.18989
ltoes 6.86882
294
root 1.06506 17.9049 24.3917 -3.93988 0.150146 0.632939
lowerback 10.5024 -0.127793 -2.31781
upperback 0.777375 -0.378016 1.20726
thorax -5.05779 -0.12275 2.62498
lowerneck -15.0939 -2.47258 -1.9253
upperneck 20.1104 -3.0131 0.23913
head 8.81437 -1.53894 0.0404691
rclavicle 1.39895e-014 -7.95139e-016
rhumerus -30.7577 -21.9364 -78.0083
rradius 26.4192
rwrist 4.98669
rhand -16.1626 21.7837
rfingers 7.12502
rthumb 10.0432 -7.95668
lclavicle 1.39895e-014 -7.95139e-016
lhumerus -26.4276 -2.6671 83.5735
lradius 26.6056
lwrist 6.39738
lhand -26.161 25.0707
lfingers 7.12502
lthumb 0.390271 55.0501
rfemur -27.7056 -1.80261 21.4436
rtibia 59.0628
rfoot -9.16752 -8.43797
rtoes -3.32273
lfemur -1.17557 -0.197386 -26.6077
ltibia 25.6063
lfoot -16.912 -2.28009
ltoes 6.91197
295
root 1.07184 17.8937 24.5595 -3.99305 0.474044 0.970533
lowerback 10.5617 -0.246189 -2.58917
upperback 0.847495 -0.573552 1.10782
thorax -5.00356 -0.216031 2.70281
lowerneck -15.3924 -2.4669 -1.91372
upperneck 20.0825 -3.01323 0.291944
head 8.86001 -1.53129 0.0527244
rclavicle -2.72087e-015 -4.37326e-015
rhumerus -30.8502 -22.087 -77.9253
rradius 26.2139
rwrist 4.757
rhand -15.6947 20.4168
rfingers 7.12502
rthumb 10.4947 -9.30124
lclavicle -2.72087e-015 -4.37326e-015
lhumerus -26.159 -2.96939 83.5103
lradius 27.3705
lwrist 6.31665
lhand -25.5824 25.8631
lfingers 7.12502
lthumb 0.949061 55.8407
rfemur -27.9558 -1.71009 20.9856
rtibia 57.0083
rfoot -7.61156 -8.88901
rtoes 5.59145
lfemur -0.152684 -0.332704 -27.0324
ltibia 24.9984
lfoot -17.3635 -2.34686
ltoes 7.1764
296
root 1.0736 17.8872 24.722 -3.90661 0.728491 0.996374
lowerback 10.5038 -0.346739 -2.58599
upperback 0.956887 -0.705899 1.08469
thorax -4.84806 -0.28564 2.6938
lowerneck -16.0067 -2.428 -1.73821
upperneck 20.2169 -2.98068 0.24221
head 9.01415 -1.50549 0.00197165
rclavicle 1.71203e-014 -7.95139e-016
rhumerus -30.8704 -22.8575 -77.7123
rradius 25.9647
rwrist 5.18249
rhand -15.5682 19.5062
rfingers 7.12502
rthumb 10.6167 -10.2056
lclavicle 1.71203e-014 -7.95139e-016
lhumerus -25.5496 -3.26644 83.4177
lradius 27.7339
lwrist 6.35027
lhand -25.3728 25.506
lfingers 7.12502
lthumb 1.15148 55.4827
rfemur -28.3353 -1.52656 20.9214
rtibia 54.849
rfoot -10.4345 -8.71722
rtoes -4.49194
lfemur 0.708323 -0.372389 -27.055
ltibia 24.2749
lfoot -17.461 -2.62272
ltoes 7.6031
297
root 1.06925 17.8834 24.8732 -3.58706 0.838418 1.07835
lowerback 10.3864 -0.441015 -2.84141
upperback 0.875024 -0.855681 1.13981
thorax -4.85403 -0.352716 2.91635
lowerneck -16.0118 -2.38157 -1.7156
upperneck 20.0355 -2.93342 0.298226
head 8.95263 -1.47564 0.0243737
rclavicle -1.06101e-014 -1.19271e-015
rhumerus -31.0942 -23.2345 -77.4972
rradius 25.9742
rwrist 5.65301
rhand -15.7164 19.8843
rfingers 7.12502
rthumb 10.4737 -9.83481
lclavicle -1.06101e-014 -1.19271e-015
lhumerus -25.1497 -3.49808 83.3788
lradius 28.0795
lwrist 6.63868
lhand -25.7283 25.3109
lfingers 7.12502
lthumb 0.808186 55.2891
rfemur -28.9851 -0.991216 20.8149
rtibia 52.5895
rfoot -10.3316 -9.63936
rtoes -5.16716
lfemur 1.27586 -0.346468 -27.104
ltibia 23.5295
lfoot -17.459 -2.79513
ltoes 7.32826
298
root 1.06511 17.8767 25.0342 -3.33577 1.02785 1.27251
lowerback 10.0467 -0.576083 -3.18594
upperback 0.944266 -1.06302 1.16392
thorax -4.5704 -0.45485 3.15739
lowerneck -16.0558 -2.37262 -1.85309
upperneck 19.7353 -2.90831 0.415247
head 8.86158 -1.46156 0.0913424
rclavicle 1.63749e-014 6.36111e-015
rhumerus -30.9639 -23.2994 -77.4565
rradius 25.7453
rwrist 5.49606
rhand -15.6118 19.9296
rfingers 7.12502
rthumb 10.5747 -9.78432
lclavicle 1.63749e-014 6.36111e-015
lhumerus -24.6212 -3.57469 83.2933
lradius 28.5019
lwrist 6.79839
lhand -26.4545 24.9938
lfingers 7.12502
lthumb 0.106811 54.9735
rfemur -29.3945 -0.501585 20.5255
rtibia 50.1662
rfoot -10.0457 -10.3252
rtoes -4.19218
lfemur 1.8975 -0.415489 -27.3111
ltibia 22.8404
lfoot -17.4072 -2.74433
ltoes 7.07012
